<?xml version="1.0" standalone="no"?>
<!DOCTYPE svg PUBLIC "-//W3C//DTD SVG 20010904//EN"
 "http://www.w3.org/TR/2001/REC-SVG-20010904/DTD/svg10.dtd">
<svg version="1.0" xmlns="http://www.w3.org/2000/svg"
 width="249.000000pt" height="203.000000pt" viewBox="0 0 249.000000 203.000000"
 preserveAspectRatio="xMidYMid meet">

<g transform="translate(0.000000,203.000000) scale(0.100000,-0.100000)"
fill="#000000" stroke="none">
<path d="M1090 1460 l0 -229 -46 45 c-25 25 -71 58 -102 72 -50 24 -69 27
-157 27 -91 -1 -106 -4 -166 -33 -115 -55 -202 -165 -244 -307 -25 -82 -25
-266 -1 -355 39 -145 128 -258 245 -314 60 -28 75 -31 166 -31 89 0 107 3 163
29 40 19 78 46 103 74 l39 45 0 -72 0 -71 180 0 180 0 0 675 0 675 -180 0
-180 0 0 -230z m-115 -409 c131 -59 157 -254 50 -358 -72 -69 -170 -69 -242 0
-48 45 -67 103 -61 186 7 90 32 131 100 165 61 31 98 32 153 7z"/>
<path d="M1580 1510 l0 -170 95 0 95 0 0 -500 0 -500 188 2 187 3 0 665 0 665
-282 3 -283 2 0 -170z"/>
</g>
</svg>
